<?xml version="1.0" encoding="UTF-8" standalone="no"?>
<!-- Created with Inkscape (http://www.inkscape.org/) -->

<svg viewBox="0 0 16 16" version="1.1" id="svg1" xml:space="preserve"
  xmlns="http://www.w3.org/2000/svg" xmlns:svg="http://www.w3.org/2000/svg">
	<defs id="defs1" /><g id="layer1">
    <g
			id="g3"
			transform="matrix(0.25774054,0.05978423,-0.05978423,0.25774054,6.5664483,-0.38186421)"
			style="stroke-width: 1.00157; stroke-dasharray: none"
		><path
				fill="#f18f26"
				d="m 10.478,22.439 c 0,0 0.702,2.281 -0.337,7.993 -0.186,1.025 -0.46,2.072 -0.599,2.93 -1.757,0 -1.851,2.002 -1.478,2.002 h 2.094 c 1.337,0 2.971,-3.334 3.854,-7.961 0.883,-4.627 -3.534,-4.964 -3.534,-4.964 z m 13.042,3.702 c 0,0 2.272,1.22 2.188,4.081 -0.033,1.131 -0.249,2.091 -0.355,3.024 -1.832,0 -1.839,1.985 -1.305,1.985 h 1.856 c 0.923,0 3.001,-3.158 3.379,-7.281 0.379,-4.122 -5.763,-1.809 -5.763,-1.809 z"
				id="path1"
				style="stroke-width: 1.00157; stroke-dasharray: none"
			/><path
				fill="#ffcc4e"
				d="M 36,8.447 C 36,3.525 31.859,1 27,1 c -0.553,0 -1,0.448 -1,1 0,0.552 0.447,1 1,1 1.804,0 6.717,0.934 6.717,5.447 0,2.881 -1.567,5.462 -3.77,5.982 C 29.783,14.356 29.602,14.325 29.438,14.237 22.199,10.32 15.981,15.139 14.212,13.947 12.46,12.765 13.673,10.692 11.388,8.704 11.058,6.863 10.315,4.227 9.594,4.227 9.045,4.227 8.329,6.052 7.854,7.883 7.263,6.502 6.491,5.127 5.994,5.127 5.354,5.127 4.716,7.4 4.4,9.362 c -1.68,1.147 -2.906,2.809 -2.906,4.765 0,2.7 4.05,3.357 5.4,3.411 1.35,0.054 3.023,3.562 3.585,5.072 1.242,4.367 2.051,8.699 2.698,11.183 -1.649,0 -1.804,2.111 -1.348,2.111 0.713,0 1.953,-0.003 2.225,0 1.381,0.014 2.026,-4.706 2.026,-8.849 0,-0.212 -0.011,-0.627 -0.011,-0.627 0,0 1.93,0.505 6.038,-0.208 2.444,-0.424 5.03,0.849 5.746,3.163 0.527,1.704 1.399,3.305 1.868,4.484 -1.589,0 -1.545,2.037 -1.084,2.037 0.787,0 1.801,0.014 2.183,0 1.468,-0.055 0.643,-7.574 1.03,-10.097 0.387,-2.523 1.267,-5.578 -0.229,-8.797 C 34.857,15.236 36,11.505 36,8.447 Z"
				id="path2"
				style="stroke-width: 1.00157; stroke-dasharray: none"
			/><circle fill="#292f33" cx="5.994" cy="11.768" r="0.89999998" id="circle2" style="stroke-width: 1.00157; stroke-dasharray: none" /><path
				fill="#e75a70"
				d="m 2.984,12.86 c -0.677,0.423 -0.677,1.777 -1.015,1.777 -0.338,0 -1.015,-0.796 -1.015,-1.777 -0.001,-0.981 2.862,-0.52 2.03,0 z"
				id="path3"
				style="stroke-width: 1.00157; stroke-dasharray: none"
			/><path
				fill="#fee7b8"
				d="M 6.578,14.343 C 6.537,14.369 6.488,14.379 6.436,14.369 6.418,14.365 4.888,14.128 3.891,14.515 3.762,14.565 3.55,14.492 3.478,14.324 3.406,14.156 3.501,13.959 3.63,13.909 5.07,13.34 6.487,13.675 6.564,13.691 c 0.139,0.029 0.195,0.19 0.188,0.372 -0.004,0.114 -0.104,0.235 -0.174,0.28 z M 6.106,16.682 C 6.058,16.691 6.009,16.681 5.965,16.651 5.95,16.641 4.634,15.821 3.563,15.798 3.425,15.795 3.258,15.644 3.258,15.457 c 0,-0.186 0.165,-0.335 0.304,-0.333 1.552,0.024 2.724,0.891 2.789,0.937 0.117,0.082 0.104,0.255 0.027,0.424 -0.049,0.107 -0.189,0.182 -0.272,0.197 z"
				id="path4"
				style="stroke-width: 1.00157; stroke-dasharray: none"
			/><path
				fill="#f18f26"
				d="m 7.854,7.881 c 0,0 0.372,-0.039 0.859,0.033 0.217,-0.46 0.585,-0.887 0.585,-0.887 0,0 0.281,0.668 0.386,1.179 0.025,0.12 0.218,0.117 0.322,0.189 0,0 0.038,-3.463 -0.863,-3.836 C 9.144,4.557 8.388,5.683 7.854,7.881 Z M 4.399,9.36 c 0,0 0.384,-0.267 0.883,-0.574 C 5.499,8.162 5.85,7.453 5.85,7.453 c 0,0 0.307,0.602 0.345,0.81 0.21,-0.114 0.21,-0.106 0.403,-0.19 0,0 -0.114,-2.286 -1.099,-2.527 0,0 -0.732,1.372 -1.1,3.814 z"
				id="path5"
				style="stroke-width: 1.00157; stroke-dasharray: none"
			/><path
				fill="#ffdd99"
				d="m 18.45,23.644 c -2.649,0.57 -2.38,2.782 -2.38,2.782 0,0 1.93,0.505 6.038,-0.208 1.067,-0.185 2.153,-0.03 3.107,0.377 C 23.608,23.548 20.9,23.116 18.45,23.644 Z"
				id="path6"
				style="stroke-width: 1.00157; stroke-dasharray: none"
			/><path
				fill="#f18f26"
				d="m 14.686,14.109 c 0.476,0.676 2.397,2.368 2.745,2.159 0.338,-0.203 0.59,-2.055 0.342,-2.706 -1.329,0.359 -2.385,0.658 -3.087,0.547 z m 7.024,2.689 c 0.623,0.138 1.507,-2.979 1.41,-4.123 -1.449,0.017 -2.78,0.256 -3.965,0.537 0.335,1.08 1.953,3.452 2.555,3.586 z m 2.627,-4.082 c 0.042,0.723 0.982,2.603 1.285,2.737 0.307,0.137 1.685,-1.319 1.866,-2.061 -1.086,-0.378 -2.142,-0.597 -3.151,-0.676 z"
				id="path7"
				style="stroke-width: 1.00157; stroke-dasharray: none"
			/></g><g
			id="g4"
			transform="matrix(0.17947523,-0.19440418,0.19440418,0.17947523,-2.2048029,8.5695457)"
			style="stroke-width: 1.00157; stroke-dasharray: none"
		><path
				fill-rule="evenodd"
				clip-rule="evenodd"
				fill="#fcab40"
				d="M 14,16 9,26 c 0,0 -1,2 1,2 1,0 2,-2 2,-2 L 26,7 c 0,0 2,-4 8,-1 V 8 C 31,7 30,9 30,9 L 15,33 c 0,0 -2,3 -7,3 C 2,36 1,31 1,28 1,26 2,24 3,22 4,20 1,16 1,16 Z"
				id="path1-2"
				style="stroke-width: 1.00157; stroke-dasharray: none"
			/><path
				fill="#fdcb58"
				d="M 7.5,20 C 4.04,20 0,18.952 0,16 c 0,-2.953 4.04,-4 7.5,-4 3.46,0 7.5,1.047 7.5,4 0,2.952 -4.04,4 -7.5,4 z"
				id="path2-4"
				style="stroke-width: 1.00157; stroke-dasharray: none"
			/><circle fill="#ccd6dd" cx="19" cy="17" r="2" id="circle2-5" style="stroke-width: 1.00157; stroke-dasharray: none" /><circle
				fill="#ccd6dd"
				cx="22"
				cy="13"
				r="2"
				id="circle3"
				style="stroke-width: 1.00157; stroke-dasharray: none"
			/><circle fill="#ccd6dd" cx="25" cy="9" r="2" id="circle4" style="stroke-width: 1.00157; stroke-dasharray: none" /><path
				fill="#9aaab4"
				d="m 33.998,10 c -0.3,0 -0.605,-0.068 -0.893,-0.211 l -2,-1 C 30.117,8.295 29.716,7.094 30.21,6.105 30.703,5.119 31.903,4.715 32.894,5.21 l 2,1 c 0.988,0.494 1.389,1.695 0.895,2.684 C 35.438,9.595 34.732,10 33.998,10 Z"
				id="path4-5"
				style="stroke-width: 1.00157; stroke-dasharray: none"
			/><path
				fill-rule="evenodd"
				clip-rule="evenodd"
				fill="#fcab40"
				d="m 8.806,21.703 1.267,-1.547 6.19,5.069 -1.267,1.547 z"
				id="path5-1"
				style="stroke-width: 1.00157; stroke-dasharray: none"
			/></g></g>
</svg>